<?xml version="1.0" encoding="UTF-8"?>
<svg xmlns="http://www.w3.org/2000/svg" viewBox="0 0 195.91 55.68" role="img" aria-label="Iriska.AI">
  <title>Iriska.AI — Burgundy mono — single color</title>
  <path fill="#722F3A" fill-rule="nonzero" d="M21.844,6.078 L16.429,4.641 L16.633,3.918 L36.511,3.918 L36.304,4.641 L30.308,6.113 L16.703,50.766 L22.082,52.207 L21.879,52.926 L2.000,52.926 L2.242,52.207 L8.203,50.734 L21.844,6.078 Z M38.312,24.035 C38.468,23.601 38.511,23.219 38.429,22.887 C38.351,22.559 38.105,22.391 37.695,22.391 C37.191,22.391 36.527,22.648 35.707,23.164 C34.883,23.676 33.906,24.637 32.777,26.039 C31.644,27.445 30.336,29.473 28.851,32.125 L28.441,31.953 C30.015,28.184 31.523,25.219 32.965,23.059 C34.402,20.898 35.867,19.371 37.351,18.469 C38.836,17.566 40.457,17.113 42.218,17.113 C42.879,17.113 43.461,17.141 43.965,17.199 C44.468,17.258 44.953,17.344 45.422,17.457 C45.890,17.570 46.398,17.719 46.945,17.902 L41.738,34.523 L41.636,34.144 C43.898,29.484 45.894,25.926 47.633,23.469 C49.367,21.016 50.957,19.336 52.394,18.434 C53.836,17.531 55.238,17.078 56.609,17.078 C58.117,17.078 59.234,17.449 59.953,18.191 C60.672,18.934 61.031,19.922 61.031,21.156 C61.031,22.277 60.785,23.269 60.293,24.141 C59.804,25.008 59.152,25.691 58.340,26.195 C57.531,26.699 56.644,26.949 55.687,26.949 C54.750,26.949 54.097,26.742 53.730,26.332 C53.367,25.922 53.218,25.305 53.285,24.480 C53.379,23.637 53.347,23.082 53.199,22.820 C53.051,22.559 52.797,22.426 52.429,22.426 C51.746,22.426 50.992,22.707 50.168,23.266 C49.344,23.824 48.484,24.641 47.582,25.715 C46.679,26.789 45.777,28.078 44.875,29.586 C43.972,31.098 43.090,32.785 42.234,34.660 C41.379,36.535 40.574,38.566 39.820,40.762 L35.707,52.926 L28.578,52.926 L38.312,24.035 Z M57.797,49.055 L68.285,20.848 L69.277,22.391 C68.457,22.230 67.543,22.305 66.535,22.613 C65.531,22.922 64.336,23.598 62.957,24.637 C61.574,25.676 59.875,27.234 57.867,29.312 L57.523,29.074 C59.511,26.242 61.363,23.949 63.074,22.203 C64.789,20.453 66.410,19.180 67.941,18.383 C69.472,17.582 70.910,17.184 72.261,17.184 C73.926,17.184 74.957,17.555 75.344,18.297 C75.734,19.039 75.652,20.141 75.105,21.601 L64.582,49.910 L63.043,48.504 C63.679,48.758 64.484,48.769 65.457,48.539 C66.429,48.312 67.683,47.660 69.226,46.586 C70.769,45.512 72.672,43.809 74.933,41.480 L75.242,41.719 C73.320,44.551 71.488,46.848 69.742,48.609 C67.992,50.367 66.359,51.652 64.840,52.465 C63.320,53.273 61.922,53.680 60.640,53.680 C59.043,53.680 58.019,53.324 57.574,52.617 C57.129,51.910 57.203,50.723 57.797,49.055 Z M71.129,7.348 C71.129,6.500 71.336,5.723 71.746,5.016 C72.156,4.309 72.734,3.742 73.476,3.320 C74.218,2.898 75.094,2.687 76.097,2.687 C77.515,2.687 78.621,3.121 79.422,3.988 C80.222,4.855 80.621,5.894 80.621,7.105 C80.621,7.953 80.426,8.746 80.039,9.488 C79.652,10.230 79.097,10.836 78.379,11.305 C77.656,11.773 76.797,12.008 75.789,12.008 C74.375,12.008 73.242,11.531 72.398,10.586 C71.551,9.637 71.129,8.559 71.129,7.348 Z M80.043,44.906 C80.090,46.504 80.203,47.769 80.386,48.695 C80.570,49.617 80.820,50.297 81.140,50.734 C81.484,51.168 81.875,51.445 82.324,51.570 C82.769,51.699 83.289,51.762 83.883,51.762 C85.344,51.762 86.570,51.543 87.566,51.109 C88.558,50.676 89.320,50.047 89.844,49.223 C90.371,48.402 90.633,47.410 90.633,46.242 C90.633,45.535 90.488,44.793 90.203,44.016 C89.918,43.238 89.449,42.363 88.801,41.394 C88.148,40.422 87.238,39.297 86.074,38.019 C84.933,36.715 84.035,35.523 83.383,34.437 C82.734,33.351 82.277,32.328 82.015,31.371 C81.750,30.410 81.621,29.449 81.621,28.492 C81.621,26.391 82.164,24.477 83.246,22.750 C84.332,21.027 85.847,19.648 87.789,18.621 C89.730,17.594 91.980,17.078 94.539,17.078 C96.367,17.078 97.812,17.277 98.875,17.680 C99.937,18.078 100.695,18.629 101.152,19.324 C101.609,20.019 101.840,20.824 101.840,21.738 C101.840,22.539 101.664,23.203 101.308,23.727 C100.953,24.254 100.371,24.652 99.558,24.926 C98.750,25.203 97.625,25.340 96.183,25.340 C96.277,23.601 96.265,22.301 96.148,21.430 C96.035,20.562 95.832,19.934 95.535,19.547 C95.258,19.180 94.898,18.934 94.453,18.809 C94.008,18.684 93.429,18.621 92.722,18.621 C90.804,18.621 89.301,19.074 88.218,19.977 C87.133,20.879 86.590,22.152 86.590,23.797 C86.590,24.480 86.707,25.180 86.949,25.887 C87.187,26.594 87.617,27.418 88.234,28.355 C88.851,29.289 89.730,30.434 90.871,31.781 C92.015,33.129 92.918,34.351 93.582,35.449 C94.242,36.543 94.715,37.574 95.004,38.531 C95.289,39.492 95.429,40.441 95.429,41.375 C95.429,43.660 94.844,45.734 93.664,47.598 C92.488,49.457 90.859,50.937 88.781,52.035 C86.703,53.133 84.316,53.680 81.621,53.680 C79.769,53.680 78.285,53.484 77.164,53.098 C76.047,52.707 75.238,52.156 74.750,51.434 C74.258,50.715 74.011,49.887 74.011,48.949 C74.011,48.016 74.211,47.242 74.613,46.637 C75.011,46.031 75.656,45.594 76.547,45.316 C77.437,45.043 78.605,44.906 80.043,44.906 Z M121.304,2.000 L104.855,52.926 L97.656,52.926 L112.152,9.027 C111.742,8.707 111.258,8.348 110.699,7.945 C110.136,7.547 109.539,7.113 108.898,6.644 C108.258,6.176 107.609,5.703 106.945,5.223 L107.047,4.844 L121.066,2.000 L121.304,2.000 Z M110.851,33.836 L110.988,33.391 C114.051,30.125 116.679,27.430 118.871,25.305 C121.066,23.180 122.937,21.516 124.492,20.316 C126.047,19.117 127.394,18.277 128.535,17.801 C129.676,17.320 130.730,17.078 131.687,17.078 C133.289,17.078 134.465,17.473 135.218,18.262 C135.972,19.051 136.347,20.027 136.347,21.191 C136.347,22.312 136.097,23.293 135.594,24.141 C135.094,24.984 134.445,25.637 133.660,26.094 C132.871,26.551 132.019,26.777 131.105,26.777 C130.078,26.777 129.390,26.531 129.051,26.039 C128.707,25.551 128.594,24.836 128.707,23.898 C128.797,22.961 128.773,22.340 128.636,22.031 C128.500,21.723 128.226,21.570 127.816,21.570 C127.199,21.570 126.410,21.785 125.449,22.219 C124.492,22.652 123.406,23.281 122.195,24.105 C120.984,24.926 119.699,25.937 118.340,27.137 C116.980,28.336 115.605,29.715 114.211,31.266 L116.129,28.766 C117.136,32.855 118.031,36.195 118.820,38.789 C119.609,41.383 120.308,43.406 120.926,44.855 C121.543,46.305 122.105,47.305 122.605,47.855 C123.109,48.402 123.578,48.676 124.011,48.676 C124.539,48.676 125.133,48.477 125.793,48.078 C126.457,47.676 127.261,46.945 128.211,45.883 C129.156,44.820 130.316,43.285 131.687,41.273 L132.133,41.547 C130.375,44.793 128.816,47.293 127.457,49.055 C126.097,50.812 124.836,52.023 123.668,52.687 C122.504,53.348 121.340,53.680 120.172,53.680 C119.375,53.680 118.644,53.457 117.980,53.012 C117.316,52.566 116.648,51.676 115.976,50.340 C115.301,49.000 114.554,47.019 113.730,44.391 C112.906,41.766 111.949,38.246 110.851,33.836 Z M150.953,50.391 L155.172,37.402 L155.582,37.437 C153.480,40.727 151.601,43.422 149.945,45.523 C148.289,47.625 146.789,49.269 145.453,50.457 C144.117,51.644 142.879,52.480 141.734,52.961 C140.594,53.441 139.484,53.680 138.410,53.680 C137.133,53.680 135.996,53.418 135.004,52.891 C134.008,52.367 133.226,51.605 132.656,50.613 C132.082,49.617 131.797,48.414 131.797,46.996 C131.797,44.508 132.230,41.898 133.101,39.168 C133.968,36.437 135.156,33.773 136.664,31.180 C138.172,28.590 139.879,26.234 141.789,24.121 C143.695,22.008 145.695,20.324 147.785,19.066 C149.875,17.809 151.949,17.184 154.004,17.184 C155.351,17.184 156.636,17.586 157.859,18.398 C159.082,19.211 160.140,20.449 161.031,22.117 L160.722,23.043 C160.152,21.898 159.488,21.113 158.734,20.676 C157.980,20.242 157.136,20.027 156.199,20.027 C154.804,20.027 153.347,20.570 151.828,21.652 C150.308,22.738 148.824,24.184 147.375,25.988 C145.922,27.793 144.621,29.793 143.465,31.988 C142.312,34.180 141.386,36.379 140.691,38.582 C139.992,40.789 139.644,42.851 139.644,44.769 C139.644,46.141 139.918,47.101 140.468,47.648 C141.015,48.195 141.758,48.469 142.695,48.469 C143.312,48.469 144.015,48.301 144.804,47.957 C145.590,47.613 146.484,47.027 147.476,46.191 C148.468,45.359 149.578,44.223 150.801,42.781 C152.023,41.344 153.355,39.527 154.793,37.332 L160.277,21.500 L161.543,17.832 L168.535,17.832 L157.808,49.738 L157.019,48.574 C157.730,48.687 158.597,48.535 159.625,48.109 C160.652,47.687 161.836,46.922 163.172,45.816 C164.508,44.707 165.988,43.203 167.609,41.309 L167.953,41.547 C165.144,46.051 162.543,49.195 160.156,50.988 C157.769,52.781 155.636,53.680 153.765,53.680 C152.554,53.680 151.699,53.383 151.195,52.789 C150.691,52.195 150.613,51.394 150.953,50.391 Z"/>
  <path fill="#722F3A" fill-rule="nonzero" d="M172.289,20.578 C171.773,20.578 171.386,20.465 171.121,20.234 C170.855,20.008 170.718,19.648 170.703,19.164 C170.718,18.680 170.855,18.320 171.121,18.094 C171.386,17.863 171.773,17.750 172.289,17.750 C172.832,17.750 173.234,17.863 173.500,18.094 C173.761,18.320 173.894,18.680 173.894,19.164 C173.894,20.105 173.359,20.578 172.289,20.578 Z M175.808,20.320 L180.734,6.184 L184.097,6.184 L189.023,20.320 L186.496,20.320 L182.531,8.113 L182.297,8.113 L178.336,20.320 L175.808,20.320 Z M178.269,17.301 L178.269,15.566 L186.859,15.566 L186.859,17.301 L178.269,17.301 Z M191.531,20.320 L191.531,6.184 L193.910,6.184 L193.910,20.320 L191.531,20.320 Z"/>
</svg>
